<svg version="1.1" xmlns="http://www.w3.org/2000/svg" xmlns:xlink="http://www.w3.org/1999/xlink" width="10" height="9.96226" viewBox="0,0,10,9.96226"><g transform="translate(-233.18573,-173.46633)"><g data-paper-data="{&quot;isPaintingLayer&quot;:true}" fill-rule="nonzero" stroke-linejoin="miter" stroke-miterlimit="10" stroke-dasharray="" stroke-dashoffset="0" style="mix-blend-mode: normal"><path d="M243.18574,178.44747c0,2.75101 -1.86243,4.98113 -4.9,4.98113c-3.03756,0 -5.1,-2.23012 -5.1,-4.98113c0,-2.75101 2.06243,-4.98113 5.1,-4.98113c3.03756,0 4.9,2.23012 4.9,4.98113z" data-paper-data="{&quot;origPos&quot;:null}" fill="#e95d5d" stroke="none" stroke-width="0" stroke-linecap="butt"/><path d="M242.12324,179.25997l-0.25,-2.125" fill="none" stroke="#f1ba00" stroke-width="2" stroke-linecap="round"/><path d="M242.99823,178.75996c0,1.58782 -0.61561,2.875 -1.375,2.875c-0.75939,0 -1.375,-1.28718 -1.375,-2.875c0,-1.58782 0.61561,-2.875 1.375,-2.875c0.75939,0 1.375,1.28718 1.375,2.875z" fill="#f1ba00" stroke="none" stroke-width="0" stroke-linecap="butt"/><path d="M243.12323,178.13496c0,1.86396 -0.61561,3.375 -1.375,3.375c-0.75939,0 -1.375,-1.51104 -1.375,-3.375c0,-1.86396 0.61561,-3.375 1.375,-3.375c0.75939,0 1.375,1.51104 1.375,3.375z" fill="#f1ba00" stroke="none" stroke-width="0" stroke-linecap="butt"/></g></g></svg>