<svg version="1.1" xmlns="http://www.w3.org/2000/svg" xmlns:xlink="http://www.w3.org/1999/xlink" width="491" height="383" viewBox="0,0,491,383"><g transform="translate(5.5,16.5)"><g data-paper-data="{&quot;isPaintingLayer&quot;:true}" fill-rule="nonzero" stroke="none" stroke-width="0" stroke-linecap="butt" stroke-linejoin="miter" stroke-miterlimit="10" stroke-dasharray="" stroke-dashoffset="0" style="mix-blend-mode: normal"><path d="M-5.5,366.5v-380h20v380z" data-paper-data="{&quot;origPos&quot;:null}" fill="#5d4e4e"/><path d="M1.5,4.5v-21h476v21z" data-paper-data="{&quot;origPos&quot;:null}" fill="#5d4e4e"/><path d="M465.5,-3.5h20l0,362.5c-5,0 -10,0 -15,0c0,0 -2.5,0 -5,1.25z" data-paper-data="{&quot;origPos&quot;:null}" fill="#5d4e4e"/><path d="M4.5,357v-21h476v21z" data-paper-data="{&quot;origPos&quot;:null}" fill="#5d4e4e"/><path d="M93.1,295v-99.95h15v99.95z" data-paper-data="{&quot;origPos&quot;:null}" fill="#5d4e4e"/><path d="M408.75,47.5v-43h9v43z" data-paper-data="{&quot;origPos&quot;:null}" fill="#5d4e4e"/><path d="M337.64286,50.35714v-9h78.85714v9z" data-paper-data="{&quot;origPos&quot;:null}" fill="#5d4e4e"/><path d="M106.5,208.83334v-14h91v14z" data-paper-data="{&quot;origPos&quot;:null}" fill="#5d4e4e"/><path d="M80.22381,75.16667v-8.33333h56.94286v8.33333z" data-paper-data="{&quot;origPos&quot;:null}" fill="#5d4e4e"/><path d="M408.96429,72.375v-28.25h8.75v28.25z" data-paper-data="{&quot;origPos&quot;:null}" fill="#5d4e4e"/><path d="M412.5,72.375v-8.25h53.75v8.25z" fill="#5d4e4e"/><path d="M80.25,150.375v-77h10.5v77z" fill="#5d4e4e"/><path d="M32.75,150.125v-7.75h50.5v7.75z" data-paper-data="{&quot;origPos&quot;:null}" fill="#5d4e4e"/><path d="M14.16667,111.625v-6.75h43.08333v6.75z" data-paper-data="{&quot;origPos&quot;:null}" fill="#5d4e4e"/><path d="M152.96667,336.66667v-103.15h9v103.15z" data-paper-data="{&quot;origPos&quot;:null}" fill="#5d4e4e"/><path d="M191.7,208.7v-13.8h26v13.8z" data-paper-data="{&quot;origPos&quot;:null}" fill="#5d4e4e"/><path d="M201.5,313.9v-107h16v107z" data-paper-data="{&quot;origPos&quot;:null}" fill="#5d4e4e"/><path d="M255.69047,206.5v-11.66667h155.80953v11.66667z" data-paper-data="{&quot;origPos&quot;:null}" fill="#5d4e4e"/><path d="M313.83333,334.83333v-49h21v49z" data-paper-data="{&quot;origPos&quot;:null}" fill="#5d4e4e"/><path d="M324.63333,298.5v-12.66667h90.433c-0.04447,0.38272 -0.06733,0.77202 -0.06733,1.16667c0,1.57898 0.36596,3.07249 1.01768,4.40034c-0.01173,0.19839 -0.01768,0.39833 -0.01768,0.59966c0,1.162 0.19819,2.2777 0.56262,3.31516c-0.82984,0.92266 -1.49047,2.00056 -1.93301,3.18484z" data-paper-data="{&quot;origPos&quot;:null}" fill="#5d4e4e"/><path d="M255.5,319.5v-115.33333h16.33333v115.33333z" data-paper-data="{&quot;origPos&quot;:null}" fill="#5d4e4e"/><path d="M313.76667,293.56667v-32.33333h16.33333v32.33333z" data-paper-data="{&quot;origPos&quot;:null}" fill="#5d4e4e"/><path d="M229.5,84.5v-80h15v80z" data-paper-data="{&quot;origPos&quot;:null}" fill="#5d4e4e"/><path d="M128.11904,75.40476v-8.66667h68.14286v8.66667z" data-paper-data="{&quot;origPos&quot;:null}" fill="#5d4e4e"/><path d="M184.16667,139.5v-65h12v65z" fill="#5d4e4e"/><path d="M125.45238,139.54762v-16.33333h63.33333v16.33333z" data-paper-data="{&quot;origPos&quot;:null}" fill="#5d4e4e"/><path d="M234.5,85.58333v-15h110v15z" data-paper-data="{&quot;origPos&quot;:null}" fill="#5d4e4e"/><path d="M342.5,21.75v-17.66667h7v17.66667z" data-paper-data="{&quot;origPos&quot;:null}" fill="#5d4e4e"/><path d="M274,73.25v-20h9v20z" fill="#5d4e4e"/><path d="M454.5,332v-199h19v199z" fill="#ffffff"/></g></g></svg>